<svg xmlns="http://www.w3.org/2000/svg" width="32" height="32" viewBox="0 0 32 32">
  <path id="google_" data-name="google+" d="M800,4369c-.541,0-1.089-.027-1.626-.082a6.374,6.374,0,0,0,3.871-5.618c0-2.459-1.395-3.675-2.872-4.962l-1.232-.993-.015-.012a1.945,1.945,0,0,1-.875-1.511,2.434,2.434,0,0,1,.908-1.685l.051-.052c1.346-1.1,2.872-2.341,2.872-5.033a6,6,0,0,0-2.427-4.786h2.12l2.189-1.277h-7.047a9.1,9.1,0,0,0-6.123,1.95,6.487,6.487,0,0,0-2.19,4.75,5.5,5.5,0,0,0,5.679,5.564c.328,0,.694-.034,1.049-.067h.011l.036,0c-.014.037-.029.072-.044.107l0,.008a3.02,3.02,0,0,0-.3,1.269,3.627,3.627,0,0,0,.958,2.322l.067.088-.084.006c-1.525.1-4.364.3-6.449,1.624a5.881,5.881,0,0,0-1.675,1.516A16,16,0,1,1,800,4369Zm5.91-21v3h2v-3h3v-2h-3v-3h-2v3h-3v2Zm-10.041,20.461h0a16.02,16.02,0,0,1-6.948-3.918c-.011-.119-.016-.239-.016-.356a3.927,3.927,0,0,1,2.942-3.651,13.365,13.365,0,0,1,3.592-.568,5.25,5.25,0,0,1,.786.036c2.706,1.992,3.729,2.912,3.729,4.68,0,2.093-1.527,3.506-4.085,3.778Zm-.977-14.2A3.81,3.81,0,0,1,791.65,4352a8.957,8.957,0,0,1-1.035-4.045,4.116,4.116,0,0,1,.752-2.624,3.174,3.174,0,0,1,2.394-1.169c2.776,0,4.311,3.856,4.311,6.521a3.715,3.715,0,0,1-.854,2.588A3.446,3.446,0,0,1,794.891,4354.261Z" transform="translate(-784 -4337)" fill="#ebebeb"/>
</svg>
