<svg xmlns="http://www.w3.org/2000/svg" width="32" height="32.001" viewBox="0 0 32 32.001">
  <path id="linked-in" d="M742,4369a16,16,0,1,1,11.314-4.687A15.9,15.9,0,0,1,742,4369Zm-3.27-21.007V4360l3.258,0v-4.357a11.752,11.752,0,0,1,.163-2.5,3.261,3.261,0,0,1,1.121-1.739,3.075,3.075,0,0,1,1.936-.627,2.647,2.647,0,0,1,1.461.379,2.007,2.007,0,0,1,.829,1.1,11.479,11.479,0,0,1,.238,2.933V4360H751v-7.559a3.994,3.994,0,0,0-1.351-3.219,5.018,5.018,0,0,0-3.5-1.281,5.158,5.158,0,0,0-1.865.347,9.718,9.718,0,0,0-2.274,1.309v-1.6Zm-5.73,0V4360h3.274v-12.006Zm1.634-3.994a1.6,1.6,0,0,0-1.149.459,1.492,1.492,0,0,0-.477,1.108,1.562,1.562,0,0,0,.481,1.15,1.61,1.61,0,0,0,1.163.473,1.587,1.587,0,0,0,1.14-.464,1.515,1.515,0,0,0,.477-1.123,1.531,1.531,0,0,0-.481-1.136A1.608,1.608,0,0,0,734.634,4344Z" transform="translate(-726 -4337)" fill="#ebebeb"/>
</svg>
