<svg xmlns="http://www.w3.org/2000/svg" width="32.001" height="32.001" viewBox="0 0 32.001 32.001">
  <path id="twitter" d="M914,4369a16,16,0,1,1,11.315-4.687A15.895,15.895,0,0,1,914,4369Zm-8.1-9.5h0a9.835,9.835,0,0,0,5.661,1.813c6.578,0,10.509-5.844,10.509-11.494,0-.159,0-.325-.011-.523a7.885,7.885,0,0,0,1.843-2.091,6.927,6.927,0,0,1-2.122.636,4,4,0,0,0,1.624-2.234,7,7,0,0,1-2.345.98,3.567,3.567,0,0,0-2.7-1.275,3.882,3.882,0,0,0-3.693,4.04,4.442,4.442,0,0,0,.1.92,10.243,10.243,0,0,1-7.612-4.221,4.33,4.33,0,0,0-.5,2.031,4.151,4.151,0,0,0,1.643,3.363,3.447,3.447,0,0,1-1.672-.505c0,.017,0,.033,0,.05a3.979,3.979,0,0,0,2.963,3.962,3.4,3.4,0,0,1-1.668.069,3.749,3.749,0,0,0,3.45,2.8,6.971,6.971,0,0,1-4.587,1.73A6.76,6.76,0,0,1,905.9,4359.5Z" transform="translate(-898 -4337)" fill="#ebebeb"/>
</svg>
